<?xml version="1.0" standalone="no"?>
<!DOCTYPE svg PUBLIC "-//W3C//DTD SVG 20010904//EN"
 "http://www.w3.org/TR/2001/REC-SVG-20010904/DTD/svg10.dtd">
<svg version="1.0" xmlns="http://www.w3.org/2000/svg"
 width="614.000000pt" height="653.000000pt" viewBox="0 0 614.000000 653.000000"
 preserveAspectRatio="xMidYMid meet">

<g transform="translate(0.000000,653.000000) scale(0.100000,-0.100000)"
fill="#000000" stroke="none">
<path d="M4451 5818 c-13 -35 -43 -114 -67 -175 -24 -62 -44 -114 -44 -117 0
-2 49 -46 110 -97 l110 -94 67 -6 c38 -4 109 -7 158 -8 l90 -1 67 177 c37 97
66 178 65 178 -1 1 -52 44 -112 96 l-110 96 -155 7 -155 7 -24 -63z"/>
<path d="M1225 5044 c-108 -25 -98 -18 -186 -131 l-41 -53 62 -106 c35 -58 69
-108 76 -111 10 -4 206 34 209 40 1 1 29 36 63 78 34 42 62 78 62 82 0 11
-133 227 -139 226 -3 -1 -51 -12 -106 -25z"/>
<path d="M3230 4773 c-14 -2 -29 -10 -35 -16 -5 -7 -35 -29 -67 -49 -31 -20
-68 -53 -83 -73 -32 -41 -65 -46 -125 -15 -56 29 -70 26 -70 -12 0 -35 31
-108 73 -176 16 -24 23 -44 17 -47 -6 -3 -10 -19 -10 -36 0 -22 -5 -29 -20
-29 -25 0 -27 -37 -2 -43 16 -4 16 -5 0 -6 -27 -2 -25 -61 1 -61 16 0 20 -8
23 -37 3 -35 6 -38 35 -41 29 -3 32 -7 38 -45 7 -48 61 -167 76 -167 14 0 11
7 -16 48 -41 63 -58 149 -46 238 6 41 11 80 11 85 0 6 9 7 23 2 12 -4 94 -8
182 -8 88 0 201 -4 251 -9 75 -7 97 -6 122 6 l30 16 8 -52 c17 -120 1 -220
-46 -286 -22 -31 -25 -40 -12 -40 15 0 60 93 73 153 l12 57 39 0 c36 0 38 1
38 33 0 20 8 39 20 50 25 21 26 54 3 60 -17 4 -17 5 0 6 23 1 22 18 -3 31 -13
7 -20 21 -20 40 0 23 -4 30 -20 30 -17 0 -20 7 -20 48 0 26 -6 57 -14 68 -8
11 -19 38 -25 60 -13 48 -75 123 -129 155 -20 12 -42 29 -49 36 -6 8 -29 19
-50 24 -38 9 -167 10 -213 2z m292 -98 c22 -15 38 -28 36 -30 -1 -2 -28 3 -58
12 -72 19 -186 12 -310 -21 -120 -31 -129 -26 -50 29 53 37 99 45 234 40 97
-3 112 -7 148 -30z m132 -196 c-8 -13 -24 -1 -24 18 0 13 3 13 15 3 8 -7 12
-16 9 -21z"/>
<path d="M5550 4513 c-34 -7 -38 -17 -29 -66 5 -29 17 -50 40 -69 l32 -27 -27
-11 c-34 -13 -76 -13 -96 0 -8 5 -10 10 -4 10 19 0 36 54 32 101 l-3 44 -57 3
c-79 4 -102 -9 -95 -55 4 -20 18 -53 34 -75 21 -32 32 -39 51 -35 21 4 23 2
18 -19 -10 -37 42 -64 119 -64 69 0 101 14 73 31 -11 6 -18 22 -18 39 0 15 -6
31 -12 33 -7 3 -3 6 9 6 46 2 79 87 57 145 -6 16 -63 20 -124 9z"/>
<path d="M3110 4171 c0 -30 41 -70 77 -77 27 -5 37 -1 63 24 30 30 40 62 19
62 -6 0 -20 -11 -31 -25 -27 -35 -64 -33 -86 5 -19 34 -42 40 -42 11z"/>
<path d="M3392 4150 c27 -79 138 -73 162 8 6 17 3 22 -12 22 -11 0 -22 -9 -25
-20 -10 -39 -80 -39 -92 0 -3 11 -15 20 -25 20 -17 0 -18 -4 -8 -30z"/>
<path d="M3185 3880 c-9 -15 29 -22 140 -27 98 -5 115 -3 150 15 l40 20 -163
0 c-89 0 -164 -4 -167 -8z"/>
<path d="M3153 3790 c-12 -5 -25 -15 -30 -23 -5 -8 -43 -18 -98 -26 -103 -14
-295 -62 -475 -119 -84 -27 -192 -50 -330 -72 -113 -17 -256 -43 -317 -56 -62
-13 -136 -24 -165 -24 -125 0 -241 -63 -284 -153 -65 -141 13 -312 152 -333
30 -4 72 0 132 14 178 42 470 82 504 69 12 -5 67 -6 120 -3 l98 6 21 -42 c13
-24 33 -74 45 -113 l22 -70 1 108 1 107 48 0 47 1 -27 23 c-20 18 -44 26 -95
31 -72 8 -137 31 -180 65 -14 11 -34 20 -45 20 -22 0 -42 43 -52 112 -8 56 2
79 48 107 40 25 68 26 146 4 56 -15 67 -15 152 0 113 20 194 12 348 -34 152
-46 250 -102 270 -155 22 -56 -43 -93 -100 -57 -83 52 -117 71 -138 77 -21 7
-21 5 9 -43 18 -28 39 -74 49 -103 l17 -53 419 -6 c230 -3 463 -7 517 -8 l97
-1 0 -32 c0 -30 1 -31 14 -12 14 18 18 16 83 -47 54 -52 122 -110 173 -147 2
-2 -13 -18 -35 -37 l-40 -34 95 6 c101 6 249 -8 292 -28 31 -13 48 -47 48 -94
0 -50 -18 -61 -109 -68 -65 -4 -96 -12 -169 -46 -49 -23 -94 -41 -100 -41 -6
0 -19 -12 -28 -26 -17 -24 -16 -26 8 -50 45 -45 201 -51 298 -11 23 9 91 16
195 20 177 7 246 22 296 64 84 71 90 209 14 309 -29 38 -92 85 -150 113 -22
10 -76 49 -120 87 -44 38 -152 126 -240 194 -88 69 -184 147 -214 174 -118
106 -454 302 -628 366 -43 15 -107 34 -143 41 -38 7 -70 19 -77 29 -15 22 -72
34 -89 19 -14 -11 -219 -8 -259 4 -11 3 -30 2 -42 -3z"/>
<path d="M4076 2317 c-4 -59 -4 -112 -1 -116 7 -12 45 -1 44 13 0 6 -8 56 -18
111 l-18 100 -7 -108z"/>
<path d="M2520 2148 c-8 -29 -15 -61 -15 -71 0 -10 -7 -22 -15 -27 -15 -9 -17
-138 -4 -265 5 -53 3 -62 -15 -79 -17 -15 -34 -18 -93 -16 -115 5 -121 4 -146
-25 -18 -22 -20 -30 -10 -42 15 -18 113 -68 192 -98 l60 -22 69 28 c53 22 73
26 83 18 10 -8 32 -4 86 19 79 33 348 119 468 151 41 11 135 25 209 31 74 6
180 18 235 26 141 22 231 20 257 -5 11 -10 39 -22 61 -25 34 -6 48 -2 79 19
50 33 72 75 59 110 -6 15 -8 30 -5 34 5 9 -285 20 -605 23 -132 2 -60 5 205 8
346 4 288 6 -368 8 l-778 2 7 125 c4 69 5 125 2 125 -2 0 -11 -24 -18 -52z"/>
<path d="M4236 1651 c-3 -5 -18 -12 -32 -15 -14 -4 -114 -49 -223 -100 -108
-51 -280 -132 -383 -181 -103 -48 -195 -93 -205 -100 -14 -11 -7 -15 53 -28
38 -8 90 -18 116 -21 27 -4 49 -13 52 -22 8 -20 -18 -58 -57 -84 l-32 -22 30
7 c17 4 57 33 95 69 l65 63 60 -5 c33 -2 61 -6 63 -7 7 -6 -39 -86 -68 -119
l-30 -34 118 -47 118 -47 51 26 c72 36 279 193 336 254 65 70 107 161 107 230
0 29 -4 62 -10 72 -14 27 -64 40 -152 40 -76 0 -78 1 -68 20 6 11 7 20 3 20
-4 0 -2 5 5 12 7 7 12 16 12 20 0 11 -17 10 -24 -1z m-361 -251 c7 -11 -52
-40 -80 -40 -21 0 -19 27 3 39 22 13 69 14 77 1z"/>
<path d="M2111 1511 c-12 -8 -7 -27 32 -108 54 -116 118 -274 171 -424 l38
-107 141 65 c171 79 183 82 192 53 4 -12 9 -19 11 -17 12 12 -150 388 -186
434 l-20 26 6 -32 c6 -30 5 -31 -27 -31 -38 0 -80 23 -148 80 -25 21 -60 45
-78 54 -35 17 -109 21 -132 7z"/>
<path d="M2050 1349 c0 -12 108 -295 138 -359 17 -36 31 -62 32 -59 1 15 -115
319 -140 369 -16 30 -29 52 -30 49z"/>
</g>
</svg>
